<svg width="25" height="25" viewBox="0 0 25 25" fill="none" xmlns="http://www.w3.org/2000/svg">
<g clip-path="url(#clip0)">
<path d="M23.62 25C24.3819 25 24.9997 24.3822 24.9997 23.6202V1.37976C24.9997 0.617565 24.3819 0 23.62 0H1.37975C0.617562 0 0 0.617659 0 1.37976V23.6202C0 24.3822 0.617562 24.9999 1.37975 24.9999H23.62V25Z" fill="#485A96"/>
<path d="M17.2495 25V15.3187H20.4991L20.9856 11.5457H17.2494V9.13679C17.2494 8.04441 17.5527 7.30002 19.1192 7.30002L21.1171 7.29908V3.92453C20.7715 3.87863 19.5855 3.77588 18.2058 3.77588C15.3252 3.77588 13.3531 5.53415 13.3531 8.76323V11.5457H10.0952V15.3187H13.3531V25H17.2495V25Z" fill="white"/>
</g>
<defs>
<clipPath id="clip0">
<rect width="25" height="25" fill="white"/>
</clipPath>
</defs>
</svg>
