<svg width="27" height="27" viewBox="0 0 27 27" fill="none" xmlns="http://www.w3.org/2000/svg">
<path d="M17.7042 1.00555V1H18.8765L19.3048 1.10544C19.5903 1.17389 19.8496 1.2636 20.0825 1.37458C20.3155 1.48557 20.5409 1.61507 20.7588 1.76304C20.9767 1.91102 21.1743 2.06179 21.3517 2.21532C21.5275 2.36701 21.6853 2.52794 21.8251 2.69811C21.9633 2.87014 22.179 2.91454 22.472 2.8313C22.7651 2.74806 23.0807 2.63244 23.4188 2.48446C23.757 2.33649 24.0914 2.17001 24.422 1.98502C24.7526 1.80003 24.954 1.68257 25.0262 1.63263C25.0968 1.58085 25.1344 1.55311 25.1389 1.54939L25.1434 1.54107L25.1659 1.52719L25.1885 1.51332L25.211 1.49945L25.2335 1.48557L25.2381 1.47725L25.2448 1.4717L25.2516 1.46615L25.2561 1.45782L25.2786 1.4495L25.3012 1.44395L25.2967 1.48557L25.2899 1.52719L25.2786 1.56881L25.2674 1.61043L25.2561 1.63818L25.2448 1.66593L25.2335 1.70755C25.226 1.73529 25.2185 1.77228 25.211 1.81853C25.2035 1.86479 25.1321 2.04975 24.9968 2.37347C24.8616 2.6972 24.6925 3.02553 24.4896 3.35849C24.2867 3.69145 24.1049 3.94301 23.9441 4.11321C23.7818 4.28524 23.6743 4.40547 23.6217 4.47392C23.5691 4.5442 23.5053 4.60893 23.4301 4.66815L23.3174 4.75971L23.2949 4.77358L23.2723 4.78746L23.2678 4.79578L23.261 4.80133L23.2543 4.80688L23.2498 4.81521L23.2272 4.82908L23.2047 4.84295L23.2002 4.85128L23.1934 4.85683L23.1867 4.86238L23.1821 4.8707L23.1777 4.87902L23.1709 4.88457L23.1641 4.89012L23.1596 4.89845H23.2723L23.9035 4.73196C24.3243 4.62098 24.7263 4.48688 25.1096 4.32963L25.7182 4.07991L25.7858 4.05216L25.8197 4.03829L25.8422 4.02442L25.8647 4.01054L25.8873 3.99667L25.9098 3.9828L25.9549 3.97447L26 3.96892V4.02442L25.9887 4.02997L25.9775 4.03829L25.973 4.04661L25.9662 4.05216L25.9594 4.05771L25.9549 4.06604L25.9504 4.07436L25.9436 4.07991L25.9369 4.08546L25.9324 4.09378L25.9279 4.10211L25.9211 4.10766L25.9098 4.13541L25.8986 4.16315L25.8918 4.1687C25.8888 4.17425 25.7934 4.33147 25.6055 4.6404C25.4177 4.95117 25.3162 5.10838 25.3012 5.1121C25.2862 5.11765 25.2651 5.14539 25.2381 5.19534C25.2125 5.24711 25.0532 5.45338 24.7601 5.8141C24.4671 6.17481 24.1801 6.49573 23.899 6.77691C23.6165 7.05993 23.4737 7.40769 23.4707 7.8202C23.4662 8.23085 23.4489 8.69517 23.4188 9.2131C23.3888 9.73105 23.3324 10.2906 23.2498 10.8918C23.1671 11.493 23.0394 12.1728 22.8665 12.9312C22.6937 13.6896 22.4833 14.4295 22.2353 15.1509C21.9874 15.8724 21.7281 16.5198 21.4576 17.0932C21.1871 17.6667 20.9391 18.1522 20.7137 18.5499C20.4883 18.9476 20.2591 19.3222 20.0261 19.6737C19.7932 20.0252 19.4987 20.421 19.1425 20.8613C18.7848 21.2997 18.5895 21.5401 18.5564 21.5827C18.5218 21.6234 18.3745 21.7751 18.1145 22.0377C17.856 22.3022 17.578 22.5668 17.2804 22.8313C16.9844 23.094 16.7124 23.3132 16.4644 23.4889C16.2164 23.6646 15.9174 23.8653 15.5672 24.091C15.2185 24.3185 14.8413 24.5294 14.4355 24.7236C14.0298 24.9179 13.6014 25.0982 13.1506 25.2647C12.6997 25.4312 12.2639 25.5607 11.8431 25.6532C11.4223 25.7456 10.9452 25.8243 10.4116 25.889L9.61136 25.9861V26H8.14608V25.9861L7.95446 25.9723C7.82674 25.963 7.72153 25.9537 7.63886 25.9445C7.55622 25.9353 7.24436 25.8844 6.70334 25.7919C6.16231 25.6994 5.73776 25.6069 5.42967 25.5144C5.1216 25.4219 4.66321 25.2462 4.05455 24.9872C3.4459 24.7283 2.92516 24.4665 2.49234 24.202C2.06102 23.9393 1.79051 23.7728 1.68079 23.7026C1.57259 23.6341 1.45086 23.549 1.3156 23.4473L1.11271 23.2947L1.10823 23.2863L1.10144 23.2808L1.09468 23.2752L1.09017 23.2669L1.06763 23.2531L1.04509 23.2392L1.0406 23.2309L1.03381 23.2253L1.02705 23.2198L1.02254 23.2114L1.01806 23.2031L1.01127 23.1976H1V23.1421L1.02254 23.1476L1.04509 23.1559L1.14653 23.1698C1.21416 23.1791 1.39826 23.1929 1.69883 23.2114C1.99941 23.2299 2.31876 23.2299 2.6569 23.2114C2.99504 23.1929 3.34071 23.1513 3.69387 23.0866C4.04705 23.0218 4.46409 22.9108 4.945 22.7536C5.42592 22.5964 5.86776 22.4095 6.27054 22.1931C6.6718 21.9749 6.95733 21.8121 7.12716 21.7048C7.29547 21.5993 7.55246 21.4032 7.89811 21.1165L8.41659 20.6865L8.4211 20.6781L8.42786 20.6726L8.43465 20.667L8.43913 20.6587L8.44364 20.6504L8.45041 20.6448L8.45719 20.6393L8.46168 20.631L8.48422 20.6226L8.50676 20.6171L8.51127 20.5893L8.51803 20.5616L8.52482 20.556L8.52931 20.5477L8.34896 20.5339C8.22874 20.5246 8.11226 20.5153 7.99955 20.5061C7.88683 20.4969 7.71026 20.4552 7.46979 20.3812C7.22935 20.3072 6.97011 20.1963 6.69206 20.0483C6.41404 19.9003 6.14353 19.7246 5.88052 19.5211C5.61754 19.3176 5.42741 19.1483 5.31019 19.0133C5.19448 18.8801 5.04418 18.6915 4.85933 18.4473C4.67599 18.2013 4.51668 17.9488 4.38142 17.6898C4.24617 17.4308 4.11693 17.132 3.99371 16.7936L3.80658 16.2886L3.79531 16.2469L3.78404 16.2053L3.77728 16.1776L3.77277 16.1498L3.80658 16.1554L3.8404 16.1637L4.08837 16.2053C4.2537 16.2331 4.51294 16.2423 4.8661 16.2331C5.21927 16.2238 5.46348 16.2053 5.59874 16.1776C5.73399 16.1498 5.81666 16.1313 5.84671 16.1221L5.89179 16.1082L5.94815 16.0943L6.00451 16.0805L6.00902 16.0721L6.01578 16.0666L6.02256 16.061L6.02705 16.0527L5.98197 16.0388L5.93688 16.025L5.89179 16.0111L5.84671 15.9972L5.80162 15.9834C5.77157 15.9741 5.71898 15.9556 5.64382 15.9279C5.56869 15.9001 5.3658 15.7984 5.03517 15.6226C4.70455 15.4469 4.44155 15.2758 4.24617 15.1093C4.0503 14.9424 3.86355 14.7598 3.68711 14.5627C3.51127 14.3629 3.31817 14.1058 3.10775 13.7913C2.89736 13.4769 2.70951 13.1115 2.54418 12.6953C2.37888 12.2791 2.25489 11.8814 2.17223 11.5022C2.0899 11.1252 2.03558 10.7398 2.00994 10.3507L1.96934 9.76803L1.99188 9.77359L2.01443 9.78191L2.03697 9.79578L2.05951 9.80966L2.08206 9.82353L2.1046 9.8374L2.45401 10.0316C2.68697 10.1611 2.97626 10.2721 3.32191 10.3646C3.66758 10.4571 3.87421 10.508 3.94184 10.5172L4.04328 10.5311H4.24617L4.24168 10.5228L4.2349 10.5172L4.22813 10.5117L4.22362 10.5033L4.21914 10.495L4.21235 10.4895L4.20559 10.4839L4.20108 10.4756L4.17854 10.4617L4.156 10.4478L4.15151 10.4395L4.14472 10.434L4.13796 10.4284L4.13345 10.4201L4.11091 10.4062L4.08837 10.3923L4.08388 10.384C4.07937 10.3803 4.01474 10.3211 3.88999 10.2064C3.76675 10.0899 3.63751 9.93915 3.50225 9.75416C3.367 9.56917 3.23174 9.37494 3.09648 9.17148C2.96098 8.96754 2.84029 8.74935 2.7358 8.51942C2.63061 8.28821 2.51939 7.99406 2.40216 7.63707C2.28645 7.28191 2.19853 6.92397 2.13841 6.56326C2.07831 6.20255 2.0445 5.84648 2.03697 5.49501C2.02946 5.14354 2.03697 4.84295 2.05951 4.59323C2.08206 4.34351 2.12714 4.0614 2.19477 3.74695C2.2624 3.43249 2.3601 3.09953 2.48783 2.74806L2.67944 2.22087L2.69071 2.17925L2.70198 2.13762L2.70877 2.13208L2.71326 2.12375L2.71776 2.11543L2.72453 2.10988L2.73131 2.11543L2.7358 2.12375L2.74031 2.13208L2.74707 2.13762L2.75385 2.14317L2.75834 2.1515L2.76285 2.15982L2.76961 2.16537L2.78088 2.19312L2.79216 2.22087L2.79894 2.22642L2.80343 2.23474L3.10775 2.65094C3.31064 2.92841 3.5511 3.23826 3.82913 3.58047C4.10717 3.92267 4.2612 4.10025 4.29125 4.11321C4.32133 4.128 4.35888 4.17053 4.40397 4.24084C4.44905 4.3093 4.59935 4.473 4.85482 4.73196C5.11032 4.99093 5.4447 5.29154 5.85798 5.63374C6.27128 5.97594 6.72964 6.31354 7.23309 6.6465C7.73656 6.97947 8.27759 7.28005 8.85618 7.54828C9.43478 7.81651 9.84055 7.99223 10.0735 8.07547C10.3064 8.15871 10.7047 8.26507 11.2683 8.39456C11.8318 8.52406 12.2564 8.6073 12.5419 8.64428C12.8275 8.68127 13.0229 8.70255 13.128 8.7081L13.2858 8.71365L13.2814 8.67203L13.2746 8.63041L13.2295 8.28357C13.1994 8.05236 13.1844 7.72863 13.1844 7.31243C13.1844 6.89623 13.2107 6.5124 13.2633 6.16093C13.3159 5.80946 13.3948 5.45338 13.5 5.09267C13.6052 4.73196 13.7082 4.44245 13.8088 4.2242C13.911 4.00777 14.0448 3.76082 14.2101 3.48335C14.3754 3.20588 14.5896 2.91917 14.8526 2.6232C15.1156 2.32722 15.4161 2.06362 15.7543 1.83241C16.0924 1.60119 16.4043 1.42544 16.6898 1.30522C16.9754 1.18499 17.2158 1.10635 17.4112 1.06937C17.6066 1.03238 17.7042 1.0111 17.7042 1.00555Z" fill="#5DA8DC" stroke="#5DA8DC" stroke-width="1.12646"/>
</svg>
