<svg width="2924" height="2494" viewBox="0 0 2924 2494" fill="none" xmlns="http://www.w3.org/2000/svg">
<g id="Illustration 10">
<g id="Background">
<g id="Background Object / Table / 2">
<g id="Group 36">
<path id="Stroke 1" d="M1144.81 1625.09L1071.32 1469.38" stroke="#CCE3FF" stroke-width="12"/>
<path id="Stroke 2" d="M1226.37 1380.73L1071.33 1469.38" stroke="#CCE3FF" stroke-width="12"/>
<path id="Stroke 4" d="M1224.57 1382.65H1287.81" stroke="#CCE3FF" stroke-width="12"/>
<path id="Fill 6" fill-rule="evenodd" clip-rule="evenodd" d="M1097.52 1639.25H1235.42C1235.42 1626.71 1225.25 1616.54 1212.71 1616.54H1120.23C1107.69 1616.54 1097.52 1626.71 1097.52 1639.25Z" fill="#DCEEFF"/>
<path id="Fill 8" fill-rule="evenodd" clip-rule="evenodd" d="M1345.91 1434.57C1345.91 1402.49 1319.9 1376.49 1287.81 1376.49C1255.72 1376.49 1229.71 1402.49 1229.71 1434.57" fill="#DCEEFF"/>
<path id="Fill 10" fill-rule="evenodd" clip-rule="evenodd" d="M937.681 2210.64H950.703L1030.72 1677.66H985.694L937.681 2210.64Z" fill="#B6D4FF"/>
<path id="Fill 12" fill-rule="evenodd" clip-rule="evenodd" d="M1165.66 2210.64H1178.68L1258.7 1677.66H1213.67L1165.66 2210.64Z" fill="#B6D4FF"/>
<path id="Fill 14" fill-rule="evenodd" clip-rule="evenodd" d="M1485.09 1476.08H1679.77L1634.09 1626.63H1439.41L1485.09 1476.08Z" fill="#DCEEFF"/>
<path id="Fill 16" fill-rule="evenodd" clip-rule="evenodd" d="M1666.06 1485.77L1627.06 1614.31H1452.85L1491.85 1485.77H1666.06Z" fill="white"/>
<path id="Fill 18" fill-rule="evenodd" clip-rule="evenodd" d="M1634.26 1525.33L1632.41 1531.48H1489.4L1491.26 1525.33H1634.26Z" fill="#B6D4FF"/>
<path id="Fill 20" fill-rule="evenodd" clip-rule="evenodd" d="M1625.14 1537.85L1623.28 1544H1484.96L1486.82 1537.85H1625.14Z" fill="#B6D4FF"/>
<path id="Fill 22" fill-rule="evenodd" clip-rule="evenodd" d="M1581.81 1550.37L1579.95 1556.52H1480.64L1482.5 1550.37H1581.81Z" fill="#B6D4FF"/>
<path id="Fill 24" fill-rule="evenodd" clip-rule="evenodd" d="M1297.06 1639.01H1491.74V1626.63H1297.06V1639.01Z" fill="#DCEEFF"/>
<path id="Fill 26" fill-rule="evenodd" clip-rule="evenodd" d="M1491.74 1639.01H1634.02V1626.63H1491.74V1639.01Z" fill="#ECF6FF"/>
<path id="Fill 27" fill-rule="evenodd" clip-rule="evenodd" d="M1679.6 1476.08H1691.57L1645.89 1626.63H1633.93L1679.6 1476.08Z" fill="#ECF6FF"/>
<path id="Fill 28" fill-rule="evenodd" clip-rule="evenodd" d="M885.05 1677.66H1620.45V1639.02H885.05V1677.66Z" fill="#B6D4FF"/>
<path id="Fill 29" fill-rule="evenodd" clip-rule="evenodd" d="M1567.26 1677.66H1854.17V1639.02H1567.26V1677.66Z" fill="#DCEEFF"/>
<path id="Fill 30" fill-rule="evenodd" clip-rule="evenodd" d="M1817.76 2210.64H1830.79L1782.77 1677.66H1737.74L1817.76 2210.64Z" fill="#DCEEFF"/>
<path id="Fill 31" fill-rule="evenodd" clip-rule="evenodd" d="M1588.91 2210.64H1601.93L1553.92 1677.66H1508.89L1588.91 2210.64Z" fill="#DCEEFF"/>
<path id="Fill 32" fill-rule="evenodd" clip-rule="evenodd" d="M1641.4 1501.04L1639.55 1507.19H1496.54L1498.4 1501.04H1641.4Z" fill="#B6D4FF"/>
<path id="Fill 33" fill-rule="evenodd" clip-rule="evenodd" d="M1622.37 1513.56L1620.52 1519.71H1493.12L1494.98 1513.56H1622.37Z" fill="#B6D4FF"/>
<path id="Fill 34" fill-rule="evenodd" clip-rule="evenodd" d="M1592.61 1484.15L1568.28 1487.1L1566.33 1484.04L1567.62 1481.25L1565.77 1479.03L1588.5 1476.08L1591.93 1478.13L1589.06 1481L1592.61 1484.15Z" fill="#B6D4FF"/>
</g>
</g>
<g id="Background Object / Chair / 2">
<g id="Group 14">
<path id="Fill 1" fill-rule="evenodd" clip-rule="evenodd" d="M964.493 1829.9V1832.56C964.493 1854.72 947.297 1872.67 926.102 1872.67H625.375C578.988 1872.67 543.29 1828.18 549.692 1778.32L583.643 1500.53C586.583 1477.52 604.7 1460.4 626.109 1460.4H715.239C736.633 1460.4 754.749 1477.52 757.706 1500.53L791.658 1778.32C791.917 1780.3 792.101 1782.29 792.21 1784.26L792.392 1784.22C792.392 1784.22 798.673 1829.9 857.048 1829.9H964.493Z" fill="#DCEEFF"/>
<path id="Fill 4" fill-rule="evenodd" clip-rule="evenodd" d="M644.345 2185.59C644.345 2199.76 632.854 2211.24 618.682 2211.24C604.508 2211.24 593.021 2199.76 593.021 2185.59C593.021 2171.42 604.508 2159.93 618.682 2159.93C632.854 2159.93 644.345 2171.42 644.345 2185.59Z" fill="#B6D4FF"/>
<path id="Fill 6_2" fill-rule="evenodd" clip-rule="evenodd" d="M878.514 2190.73H624.908C615.195 2190.73 607.247 2182.79 607.247 2173.08C607.247 2163.37 615.195 2155.42 624.908 2155.42H878.514C888.227 2155.42 896.175 2163.37 896.175 2173.08C896.175 2182.79 888.227 2190.73 878.514 2190.73Z" fill="#CCE3FF"/>
<path id="Fill 8_2" fill-rule="evenodd" clip-rule="evenodd" d="M738.698 2182.33H764.725V1871.6H738.698V2182.33Z" fill="#CCE3FF"/>
<path id="Fill 10_2" fill-rule="evenodd" clip-rule="evenodd" d="M840.888 1871.6L751.71 1912.2L662.534 1871.6H840.888Z" fill="#CCE3FF"/>
<path id="Fill 11" fill-rule="evenodd" clip-rule="evenodd" d="M753.684 2190.73H720.776C711.061 2190.73 703.113 2182.79 703.113 2173.08C703.113 2163.37 711.061 2155.42 720.776 2155.42H753.684C763.397 2155.42 771.344 2163.37 771.344 2173.08C771.344 2182.79 763.397 2190.73 753.684 2190.73Z" fill="#B6D4FF"/>
<path id="Fill 12_2" fill-rule="evenodd" clip-rule="evenodd" d="M732.096 2185.59C732.096 2199.76 720.606 2211.24 706.434 2211.24C692.259 2211.24 680.771 2199.76 680.771 2185.59C680.771 2171.42 692.259 2159.93 706.434 2159.93C720.606 2159.93 732.096 2171.42 732.096 2185.59Z" fill="#B6D4FF"/>
<path id="Fill 13" fill-rule="evenodd" clip-rule="evenodd" d="M912.102 2185.59C912.102 2199.76 900.612 2211.24 886.439 2211.24C872.265 2211.24 860.777 2199.76 860.777 2185.59C860.777 2171.42 872.265 2159.93 886.439 2159.93C900.612 2159.93 912.102 2171.42 912.102 2185.59Z" fill="#B6D4FF"/>
</g>
</g>
<g id="Background Object / Closet / 1">
<g id="Group 36_2">
<path id="Fill 1_2" fill-rule="evenodd" clip-rule="evenodd" d="M1894.92 2213.32H1937.39V2075.4H1894.92V2213.32Z" fill="#DCEEFF"/>
<path id="Fill 2" fill-rule="evenodd" clip-rule="evenodd" d="M2248.64 2213.32H2291.11V2075.4H2248.64V2213.32Z" fill="#DCEEFF"/>
<path id="Fill 3" fill-rule="evenodd" clip-rule="evenodd" d="M2045.54 2213.32H2088.01V2075.4H2045.54V2213.32Z" fill="#B6D4FF"/>
<path id="Fill 4_2" fill-rule="evenodd" clip-rule="evenodd" d="M2399.26 2213.32H2441.73V2075.4H2399.26V2213.32Z" fill="#B6D4FF"/>
<path id="Fill 5" fill-rule="evenodd" clip-rule="evenodd" d="M2045.3 2099.87H2441.48V928.258H2045.3V2099.87Z" fill="#B6D4FF"/>
<path id="Fill 6_3" fill-rule="evenodd" clip-rule="evenodd" d="M1895.72 2099.87H2291.91V928.258H1895.72V2099.87Z" fill="#DCEEFF"/>
<path id="Fill 7" fill-rule="evenodd" clip-rule="evenodd" d="M2165.34 848.589C2165.34 882.253 2147.55 911.789 2120.87 928.258H2022.92C1996.23 911.789 1978.44 882.253 1978.44 848.589C1978.44 832.923 1982.3 818.175 1989.09 805.223H2154.69C2161.48 818.175 2165.34 832.923 2165.34 848.589Z" fill="#DCEEFF"/>
<path id="Fill 9" fill-rule="evenodd" clip-rule="evenodd" d="M2190.18 928.237H2230.57V774H2190.18V928.237Z" fill="#DCEEFF"/>
<path id="Fill 11_2" fill-rule="evenodd" clip-rule="evenodd" d="M2149.79 928.237H2190.18V774H2149.79V928.237Z" fill="#CCE3FF"/>
<path id="Fill 12_3" fill-rule="evenodd" clip-rule="evenodd" d="M2230.57 928.237H2270.96V774H2230.57V928.237Z" fill="#CCE3FF"/>
<path id="Fill 13_2" fill-rule="evenodd" clip-rule="evenodd" d="M2379.45 928.237H2270.96V774H2379.45C2383.98 774 2387.66 777.672 2387.66 782.205V920.032C2387.66 924.563 2383.98 928.237 2379.45 928.237Z" fill="#B6D4FF"/>
<path id="Fill 14_2" fill-rule="evenodd" clip-rule="evenodd" d="M2306.55 835.303H2352.07V820.031H2306.55V835.303Z" fill="#CCE3FF"/>
<path id="Fill 15" fill-rule="evenodd" clip-rule="evenodd" d="M1931.19 2061.26H2256.6V1724.05H1931.19V2061.26Z" fill="#CCE3FF"/>
<path id="Fill 16_2" fill-rule="evenodd" clip-rule="evenodd" d="M1931.19 2061.26H2043.45V1724.05H1931.19V2061.26Z" fill="#B6D4FF"/>
<path id="Fill 17" fill-rule="evenodd" clip-rule="evenodd" d="M1931.19 1682.2H2256.6V1344.98H1931.19V1682.2Z" fill="#CCE3FF"/>
<path id="Fill 18_2" fill-rule="evenodd" clip-rule="evenodd" d="M1931.19 1682.2H2043.45V1344.98H1931.19V1682.2Z" fill="#B6D4FF"/>
<path id="Fill 19" fill-rule="evenodd" clip-rule="evenodd" d="M1931.19 1303.13H2256.6V965.916H1931.19V1303.13Z" fill="#CCE3FF"/>
<path id="Fill 20_2" fill-rule="evenodd" clip-rule="evenodd" d="M1931.19 1303.13H2043.45V965.916H1931.19V1303.13Z" fill="#B6D4FF"/>
<path id="Fill 21" fill-rule="evenodd" clip-rule="evenodd" d="M2009.1 2061.26H2041.31V1938.27H2009.1V2061.26Z" fill="#DCEEFF"/>
<path id="Fill 22_2" fill-rule="evenodd" clip-rule="evenodd" d="M1976.89 2061.26H2009.1V1938.27H1976.89V2061.26Z" fill="#CCE3FF"/>
<path id="Fill 23" fill-rule="evenodd" clip-rule="evenodd" d="M2041.31 2061.26H2073.52V1938.27H2041.31V2061.26Z" fill="#CCE3FF"/>
<path id="Fill 24_2" fill-rule="evenodd" clip-rule="evenodd" d="M2158.37 2061.26H2073.51V1938.27H2158.37C2162.91 1938.27 2166.58 1941.94 2166.58 1946.47V2053.06C2166.58 2057.59 2162.91 2061.26 2158.37 2061.26Z" fill="#B6D4FF"/>
<path id="Fill 25" fill-rule="evenodd" clip-rule="evenodd" d="M2087.31 1968.36H2152.79V1956.18H2087.31V1968.36Z" fill="#CCE3FF"/>
<path id="Fill 26_2" fill-rule="evenodd" clip-rule="evenodd" d="M2101.9 1987.15H2138.2V1974.97H2101.9V1987.15Z" fill="#CCE3FF"/>
<path id="Fill 27_2" fill-rule="evenodd" clip-rule="evenodd" d="M2121.83 1250.91C2119.34 1271.88 2108.71 1290.38 2093.19 1303.13H1991.67C1976.15 1290.38 1965.52 1271.88 1963.01 1250.91H2121.83Z" fill="#DCEEFF"/>
<path id="Fill 28_2" fill-rule="evenodd" clip-rule="evenodd" d="M2121.83 1207.31C2117.11 1246.96 2083.36 1277.71 2042.42 1277.71C2001.49 1277.71 1967.74 1246.96 1963.01 1207.31H2121.83Z" fill="#DCEEFF"/>
<path id="Fill 29_2" fill-rule="evenodd" clip-rule="evenodd" d="M2121.83 1163.78C2119.34 1184.76 2108.71 1203.25 2093.19 1216H1991.67C1976.15 1203.25 1965.52 1184.76 1963.01 1163.78H2121.83Z" fill="#DCEEFF"/>
<path id="Fill 30_2" fill-rule="evenodd" clip-rule="evenodd" d="M2121.83 1120.18C2117.11 1159.82 2083.36 1190.58 2042.42 1190.58C2001.49 1190.58 1967.74 1159.82 1963.01 1120.18H2121.83Z" fill="#DCEEFF"/>
<path id="Fill 31_2" fill-rule="evenodd" clip-rule="evenodd" d="M2069.54 1601.19C2069.54 1632.06 2066.25 1660.3 2060.76 1682.2H2003.23C1997.75 1660.3 1994.45 1632.06 1994.45 1601.19" fill="#ECF6FF"/>
<path id="Stroke 32" d="M2066.69 1614.76C2079.73 1617.33 2088.22 1629.99 2085.65 1643.03C2083.07 1656.07 2070.41 1664.55 2057.37 1661.98" stroke="#ECF6FF" stroke-width="8"/>
<path id="Fill 33_2" fill-rule="evenodd" clip-rule="evenodd" d="M2184.77 1601.19C2184.77 1632.06 2181.48 1660.3 2175.99 1682.2H2118.46C2112.98 1660.3 2109.68 1632.06 2109.68 1601.19" fill="#ECF6FF"/>
<path id="Stroke 34" d="M2169.45 1614.76C2182.5 1617.33 2190.98 1629.99 2188.41 1643.03C2185.83 1656.07 2173.17 1664.55 2160.13 1661.98" stroke="#ECF6FF" stroke-width="8"/>
</g>
</g>
<g id="Background Object / Pluteus / 4">
<g id="Group 7">
<path id="Fill 1_3" fill-rule="evenodd" clip-rule="evenodd" d="M1205.18 661.641H527.914V633.199H1205.18V661.641Z" fill="#DCEEFF"/>
<path id="Fill 2_2" fill-rule="evenodd" clip-rule="evenodd" d="M527.914 661.641H416.495V633.199H527.914V661.641Z" fill="#CCE3FF"/>
<path id="Fill 3_2" fill-rule="evenodd" clip-rule="evenodd" d="M1040.11 661.641L987.222 744.594V661.641H1040.11Z" fill="#B6D4FF"/>
<path id="Fill 4_3" fill-rule="evenodd" clip-rule="evenodd" d="M1069.38 661.641L1016.49 744.594H987.222L1040.11 661.641H1069.38Z" fill="#CCE3FF"/>
<path id="Fill 5_2" fill-rule="evenodd" clip-rule="evenodd" d="M652.203 661.641L599.314 744.594V661.641H652.203Z" fill="#B6D4FF"/>
<path id="Fill 6_4" fill-rule="evenodd" clip-rule="evenodd" d="M681.472 661.641L628.582 744.594H599.313L652.203 661.641H681.472Z" fill="#CCE3FF"/>
</g>
</g>
<g id="Background Object / Picture / 1">
<g id="Group 8">
<path id="Fill 1_4" fill-rule="evenodd" clip-rule="evenodd" d="M1449.73 455.494H1700.24V244.998H1449.73V455.494Z" fill="#DCEEFF"/>
<path id="Stroke 2_2" fill-rule="evenodd" clip-rule="evenodd" d="M1449.73 455.494H1700.24V244.998H1449.73V455.494Z" stroke="#DCEEFF" stroke-width="5"/>
<path id="Fill 4_4" fill-rule="evenodd" clip-rule="evenodd" d="M1435 455.777H1685.51V245.281H1435V455.777Z" fill="white"/>
<path id="Stroke 5" fill-rule="evenodd" clip-rule="evenodd" d="M1435 455.777H1685.51V245.281H1435V455.777Z" stroke="#DCEEFF" stroke-width="5"/>
<path id="Fill 7_2" fill-rule="evenodd" clip-rule="evenodd" d="M1477.67 412.289H1639.27V288.203H1477.67V412.289Z" fill="#DCEEFF"/>
</g>
</g>
<g id="Background Object / Picture / 6">
<g id="Group 8_2">
<path id="Fill 1_5" fill-rule="evenodd" clip-rule="evenodd" d="M1497.53 658.46H1649.77V481H1497.53V658.46Z" fill="#DCEEFF"/>
<path id="Stroke 2_3" fill-rule="evenodd" clip-rule="evenodd" d="M1497.53 658.46H1649.77V481H1497.53V658.46Z" stroke="#DCEEFF" stroke-width="5"/>
<path id="Fill 4_5" fill-rule="evenodd" clip-rule="evenodd" d="M1487 658.46H1642.07V481H1487V658.46Z" fill="white"/>
<path id="Stroke 5_2" fill-rule="evenodd" clip-rule="evenodd" d="M1487 658.46H1642.07V481H1487V658.46Z" stroke="#DCEEFF" stroke-width="5"/>
<path id="Fill 7_3" fill-rule="evenodd" clip-rule="evenodd" d="M1523.7 612.282H1598.22V526.854H1523.7V612.282Z" fill="#CCE3FF"/>
</g>
</g>
<g id="Background Object / Picture / 7">
<g id="Group 8_3">
<path id="Fill 1_6" fill-rule="evenodd" clip-rule="evenodd" d="M1741.64 569.904H2022.47V247H1741.64V569.904Z" fill="#DCEEFF"/>
<path id="Stroke 2_4" fill-rule="evenodd" clip-rule="evenodd" d="M1741.64 569.904H2022.47V247H1741.64V569.904Z" stroke="#DCEEFF" stroke-width="9"/>
<path id="Fill 4_6" fill-rule="evenodd" clip-rule="evenodd" d="M1731 569.904H2011.83V247H1731V569.904Z" fill="white"/>
<path id="Stroke 5_3" fill-rule="evenodd" clip-rule="evenodd" d="M1731 569.904H2011.83V247H1731V569.904Z" stroke="#DCEEFF" stroke-width="9"/>
<path id="Fill 7_4" fill-rule="evenodd" clip-rule="evenodd" d="M1790.25 502.256H1948.58V314.648H1790.25V502.256Z" fill="#CCE3FF"/>
</g>
</g>
</g>
<g id="Person / Woman / 5">
<g id="Girl / Head / 1">
<g id="Group 31">
<path id="Hair" d="M1062.16 931.653C1062.57 934.044 1062.78 936.501 1062.78 939.008C1062.78 939.072 1062.78 939.136 1062.78 939.2C1084.46 962.492 1095.9 994.99 1091.13 1028.76C1082.76 1088.15 1027.31 1129.89 967.925 1121.51L863.815 1106.82C804.427 1098.44 762.691 1043 771.071 983.61C776.973 941.77 806.237 908.691 843.783 895.726C833.568 880.345 828.704 861.335 831.471 841.726C836.542 805.774 865.703 778.858 900.293 775.022C897.466 765.701 896.569 755.65 898.012 745.416H898.014C903.34 707.658 938.592 681.122 976.35 686.45C985.951 687.804 994.826 691.093 1002.64 695.866C1024.48 683.285 1050.39 676 1078.17 676C1156.17 676 1219.4 733.412 1219.4 804.234C1219.4 875.056 1156.17 932.468 1078.17 932.468C1072.76 932.468 1067.42 932.191 1062.16 931.653Z" fill="#FCBDA4"/>
<path id="Fill 11_3" fill-rule="evenodd" clip-rule="evenodd" d="M1099.69 957.789C1099.69 957.789 1073.83 958.553 1062.81 952.533L1098.32 974.827L1099.69 957.789Z" fill="#CF3E83"/>
<g id="Face color">
<path id="Face" d="M1036.83 899.165C1023.34 887.378 1001.16 881.601 1001.13 861.236C1001.12 854.082 1005.3 841.694 1020.74 841.672C1040.32 841.642 1038.77 863.785 1038.54 866.25L1038.52 866.375L1038.53 866.377C1038.52 866.44 1038.52 866.472 1038.52 866.472C1040.74 867.338 1042.97 867.411 1045.2 866.819C1061.07 866.999 1101.38 862.187 1123.86 812.023C1128.59 817.005 1133.93 821.379 1139.72 825.067C1156.44 835.676 1177.05 840.599 1198.13 838.15C1196.83 863.484 1189.4 927.792 1157.33 949.122C1144.15 957.89 1120.14 958.97 1099.69 957.79L1095 1015.88C1095 1015.88 1032.54 988.65 1029.96 981.223C1048.82 976.442 1062.78 959.354 1062.78 939.008C1062.78 921.223 1052.11 905.926 1036.83 899.165Z" fill="#ED4848"/>
</g>
<path id="Fill 15_2" fill-rule="evenodd" clip-rule="evenodd" d="M1155.91 866.428L1170.71 902.308L1153.54 901.964L1155.91 866.428Z" fill="#405FD3"/>
<path id="Fill 17_2" fill-rule="evenodd" clip-rule="evenodd" d="M1140.15 867.984C1139.78 875.152 1135.57 880.736 1130.74 880.458C1125.91 880.18 1122.29 874.144 1122.66 866.976C1123.03 859.808 1127.24 854.224 1132.07 854.502C1136.9 854.78 1140.52 860.818 1140.15 867.984Z" fill="#0D0B6D"/>
<path id="Fill 19_2" fill-rule="evenodd" clip-rule="evenodd" d="M1185.53 866.84C1185.16 874.008 1180.94 879.592 1176.11 879.314C1171.28 879.036 1167.66 873 1168.03 865.832C1168.4 858.664 1172.61 853.078 1177.45 853.356C1182.28 853.634 1185.9 859.672 1185.53 866.84Z" fill="#0D0B6D"/>
<path id="Stroke 21" d="M1149.33 919.151C1149.33 919.151 1138.14 922.763 1126.93 910.297" stroke="#1C295E" stroke-width="3"/>
<path id="Fill 23_2" opacity="0.401762" fill-rule="evenodd" clip-rule="evenodd" d="M1099.65 957.789C1099.65 957.789 1073.79 958.553 1062.77 952.531L1098.28 974.825L1099.65 957.789Z" fill="black"/>
</g>
</g>
<g id="Girl / Body / 2">
<g id="Group 21">
<g id="Skin color">
<path id="Skin" fill-rule="evenodd" clip-rule="evenodd" d="M1272.24 1428.71C1272.24 1428.71 1249.64 1431.55 1245.34 1441.67C1233.03 1470.61 1258.53 1522.34 1258.53 1522.34C1258.53 1522.34 1247.73 1515.75 1245.58 1521.52C1244.62 1524.08 1242.45 1544.58 1282.93 1545.96C1287.23 1546.11 1297.57 1537.36 1297.57 1537.36C1297.57 1537.36 1290.03 1551.76 1301.57 1554.58C1301.57 1554.58 1320.17 1526.71 1320.46 1520.51C1320.74 1514.31 1314.77 1482.91 1311.54 1476.57C1308.32 1470.23 1272.24 1428.71 1272.24 1428.71ZM889.466 1479.51L881.458 1429.72C870.531 1434.77 861.097 1434.35 853.242 1434C845.174 1433.65 838.773 1433.37 834.134 1439.15C824.88 1450.7 814.232 1474.41 808.688 1488.45C806.398 1494.25 805.058 1515.47 806.786 1527.47C807.766 1534.26 811.138 1540.92 811.138 1540.92C811.138 1540.92 814.502 1553.63 816.338 1554.96C821.524 1558.73 824.836 1553.32 824.836 1553.32C824.836 1553.32 826.122 1571.16 830.22 1570.03C832.748 1569.33 836.708 1566.6 837.416 1562.31C841.928 1534.99 851.432 1507.14 861.564 1503.56C868.07 1501.27 868.699 1512.35 869.289 1522.74C869.618 1528.52 869.934 1534.09 871.248 1537C874.81 1544.87 892.194 1552.63 889.44 1539.37C885.669 1521.2 886.562 1513.92 887.893 1503.07C887.957 1502.55 888.021 1502.03 888.086 1501.5C889.516 1489.74 889.466 1479.51 889.466 1479.51Z" fill="#E576C6"/>
</g>
<path id="Stroke 5_4" opacity="0.152414" d="M1266.8 1466.1C1266.8 1466.1 1272.48 1487.55 1291.97 1494.24C1298.79 1496.58 1297.08 1524.18 1313.79 1520.88" stroke="black" stroke-width="3"/>
<g id="Sweater color">
<path id="Sweater" d="M1027.62 999.583L1033.35 958L1120.73 970.048L1115.97 1004.6C1141.62 1007.08 1159.08 1012.09 1175.42 1027.09C1227.9 1075.27 1231.76 1255.63 1231.76 1255.63L1287.22 1445.13L1241.58 1450.85C1241.58 1450.85 1165.18 1349.61 1148.3 1295.17H991.797C991.797 1295.17 993.277 1278.99 989.597 1255.61C984.757 1225.03 967.377 1202.23 967.377 1202.23L935.937 1240.91L881.457 1433.87L831.397 1442.85C831.397 1442.85 816.377 1285.11 846.757 1198.97C873.317 1123.63 921.777 1041.81 959.617 1017.97C983.639 1002.83 1006.2 999.508 1027.62 999.583Z" fill="#CE3D29"/>
</g>
<path id="Stroke 14" opacity="0.195894" d="M1163.83 1297.27C1170.24 1215.78 1214.65 1198.55 1182.65 1107.17" stroke="black" stroke-width="3"/>
<path id="Stroke 19" opacity="0.195894" d="M1006.35 1143.17L967.371 1202.22" stroke="black" stroke-width="3"/>
</g>
</g>
<g id="Girl / Legs / 2">
<g id="Group 17">
<g id="Shoes">
<path id="Shoes_2" fill-rule="evenodd" clip-rule="evenodd" d="M1039.32 2366.7L990.652 2369.14C990.652 2369.14 953.884 2378.18 928.484 2428.13H1044.52L1039.32 2366.7ZM1395.08 2428.71C1360.65 2393 1269.04 2368.98 1269.04 2368.98L1234.71 2367.93L1230.23 2429.01L1395.08 2428.71Z" fill="#0D0B6D"/>
</g>
<g id="Skin color_2">
<path id="Skin_2" fill-rule="evenodd" clip-rule="evenodd" d="M969.115 2401.26C997.158 2400.7 1016.36 2385.59 1026.31 2375.15L1037.74 2377.24L1077.24 1765.11L949.885 1824.11L998.354 2364.29C990.247 2369.74 943.587 2401.76 969.115 2401.26ZM1350.67 2399.07L1285.01 2370.57C1281.24 2345.56 1265.3 2236.71 1250.6 2090.49C1237.41 1959.29 1225.92 1839.22 1225.92 1839.22L1116.38 1844.33L1236.17 2376.03H1249.18C1270.02 2386.66 1310.43 2403.47 1350.67 2399.07Z" fill="#E576C6"/>
</g>
<g id="Skirt color">
<path id="Skirt" d="M996.6 1276C996.6 1276 962.654 1292.23 933.116 1380.33C893.582 1498.25 882 1855.41 882 1855.41H1262.66L1164.57 1278.56L996.6 1276Z" fill="#2F2F3D"/>
</g>
</g>
</g>
</g>
</g>
</svg>
